<?xml version="1.0" encoding="utf-8"?>
<!-- Generator: Adobe Illustrator 20.1.0, SVG Export Plug-In . SVG Version: 6.00 Build 0)  -->
<svg version="1.1" id="Layer_1" xmlns="http://www.w3.org/2000/svg" xmlns:xlink="http://www.w3.org/1999/xlink" x="0px" y="0px"
	 viewBox="0 0 169.7 169.7" style="enable-background:new 0 0 169.7 169.7;" xml:space="preserve">
<style type="text/css">
	.st0{fill:#446CB3;}
	.st1{fill:#FFFFFF;}
</style>
<title>logo</title>
<rect x="41.1" y="41.1" transform="matrix(0.7071 -0.7071 0.7071 0.7071 -35.1481 84.855)" class="st0" width="87.6" height="87.6"/>
<polygon class="st1" points="72.4,57.2 72.4,99.8 61.6,111.9 61.5,111.9 61.5,69.1 "/>
<polygon class="st1" points="114.8,57.2 114.8,99.8 103.9,111.9 103.8,111.9 103.8,69.1 "/>
<polygon class="st1" points="73.2,57.2 73.2,99.8 83.9,111.9 84.1,111.9 84.1,69.1 "/>
<polygon class="st1" points="60.8,94.3 60.8,111.8 52,101.8 52,84.3 "/>
<polygon class="st1" points="103.1,95.4 103.1,111.8 94.3,102.4 94.3,85.9 "/>
<polygon class="st1" points="84.9,95.4 84.9,111.8 93.6,102.4 93.6,85.9 "/>
</svg>
